HIERARCHY
ROOT hip
{
  OFFSET 0 0 0
  CHANNELS 6 Xposition Yposition Zposition Zrotation Yrotation Xrotation
  JOINT abdomen
  {
    OFFSET 0 20.6881 -0.73152
    CHANNELS 3 Zrotation Xrotation Yrotation
    JOINT chest
    {
      OFFSET 0 11.7043 -0.48768
      CHANNELS 3 Zrotation Xrotation Yrotation
      JOINT neck
      {
        OFFSET 0 22.1894 -2.19456
        CHANNELS 3 Zrotation Xrotation Yrotation
        JOINT head
        {
          OFFSET -0.24384 7.07133 1.2192
          CHANNELS 3 Zrotation Xrotation Yrotation
          JOINT leftEye
          {
            OFFSET 4.14528 8.04674 8.04672
            CHANNELS 3 Zrotation Xrotation Yrotation
            End Site
            {
              OFFSET 1 0 0
            }
          }
          JOINT rightEye
          {
            OFFSET -3.6576 8.04674 8.04672
            CHANNELS 3 Zrotation Xrotation Yrotation
            End Site
            {
              OFFSET 1 0 0
            }
          }
        }
      }
      JOINT rCollar
      {
        OFFSET -2.68224 19.2634 -4.8768
        CHANNELS 3 Zrotation Xrotation Yrotation
        JOINT rShldr
        {
          OFFSET -8.77824 -1.95073 1.46304
          CHANNELS 3 Zrotation Xrotation Yrotation
          JOINT rForeArm
          {
            OFFSET -28.1742 -1.7115 0.48768
            CHANNELS 3 Zrotation Xrotation Yrotation
            JOINT rHand
            {
              OFFSET -22.5879 0.773209 7.07136
              CHANNELS 3 Zrotation Xrotation Yrotation
              JOINT rThumb1
              {
                OFFSET -1.2192 -0.487915 3.41376
                CHANNELS 3 Zrotation Xrotation Yrotation
                JOINT rThumb2
                {
                  OFFSET -3.37035 -0.52449 3.41376
                  CHANNELS 3 Zrotation Xrotation Yrotation
                  End Site
                  {
                    OFFSET -1.78271 -1.18214 1.43049
                  }
                }
              }
              JOINT rIndex1
              {
                OFFSET -7.75947 0.938293 5.60832
                CHANNELS 3 Zrotation Xrotation Yrotation
                JOINT rIndex2
                {
                  OFFSET -2.54057 -0.884171 1.56538
                  CHANNELS 3 Zrotation Xrotation Yrotation
                  End Site
                  {
                    OFFSET -1.62519 -0.234802 1.16502
                  }
                }
              }
              JOINT rMid1
              {
                OFFSET -8.24714 1.18213 3.41376
                CHANNELS 3 Zrotation Xrotation Yrotation
                JOINT rMid2
                {
                  OFFSET -3.10165 -0.590103 1.0647
                  CHANNELS 3 Zrotation Xrotation Yrotation
                  End Site
                  {
                    OFFSET -2.48547 -0.328903 0.83742
                  }
                }
              }
              JOINT rRing1
              {
                OFFSET -8.82822 0.546677 1.51678
                CHANNELS 3 Zrotation Xrotation Yrotation
                JOINT rRing2
                {
                  OFFSET -2.60934 -0.819778 -0.0198488
                  CHANNELS 3 Zrotation Xrotation Yrotation
                  End Site
                  {
                    OFFSET -2.33842 -0.294052 0.168128
                  }
                }
              }
              JOINT rPinky1
              {
                OFFSET -8.27202 -0.0477905 -0.4584
                CHANNELS 3 Zrotation Xrotation Yrotation
                JOINT rPinky2
                {
                  OFFSET -1.82734 -0.647385 -0.700984
                  CHANNELS 3 Zrotation Xrotation Yrotation
                  End Site
                  {
                    OFFSET -1.69225 -0.51767 -0.607171
                  }
                }
              }
            }
          }
        }
      }
      JOINT lCollar
      {
        OFFSET 2.68224 19.2634 -4.8768
        CHANNELS 3 Zrotation Xrotation Yrotation
        JOINT lShldr
        {
          OFFSET 8.77824 -1.95073 1.46304
          CHANNELS 3 Zrotation Xrotation Yrotation
          JOINT lForeArm
          {
            OFFSET 28.1742 -1.7115 0.48768
            CHANNELS 3 Zrotation Xrotation Yrotation
            JOINT lHand
            {
              OFFSET 22.5879 0.773209 7.07136
              CHANNELS 3 Zrotation Xrotation Yrotation
              JOINT lThumb1
              {
                OFFSET 1.2192 -0.487915 3.41376
                CHANNELS 3 Zrotation Xrotation Yrotation
                JOINT lThumb2
                {
                  OFFSET 3.37035 -0.52449 3.41376
                  CHANNELS 3 Zrotation Xrotation Yrotation
                  End Site
                  {
                    OFFSET 1.78271 -1.18214 1.43049
                  }
                }
              }
              JOINT lIndex1
              {
                OFFSET 7.75947 0.938293 5.60832
                CHANNELS 3 Zrotation Xrotation Yrotation
                JOINT lIndex2
                {
                  OFFSET 2.54057 -0.884171 1.56538
                  CHANNELS 3 Zrotation Xrotation Yrotation
                  End Site
                  {
                    OFFSET 1.62519 -0.234802 1.16502
                  }
                }
              }
              JOINT lMid1
              {
                OFFSET 8.24714 1.18213 3.41376
                CHANNELS 3 Zrotation Xrotation Yrotation
                JOINT lMid2
                {
                  OFFSET 3.10165 -0.590103 1.0647
                  CHANNELS 3 Zrotation Xrotation Yrotation
                  End Site
                  {
                    OFFSET 2.48547 -0.328903 0.83742
                  }
                }
              }
              JOINT lRing1
              {
                OFFSET 8.82822 0.546677 1.51678
                CHANNELS 3 Zrotation Xrotation Yrotation
                JOINT lRing2
                {
                  OFFSET 2.60934 -0.819778 -0.0198488
                  CHANNELS 3 Zrotation Xrotation Yrotation
                  End Site
                  {
                    OFFSET 2.33842 -0.294052 0.168128
                  }
                }
              }
              JOINT lPinky1
              {
                OFFSET 8.27202 -0.0477905 -0.4584
                CHANNELS 3 Zrotation Xrotation Yrotation
                JOINT lPinky2
                {
                  OFFSET 1.82734 -0.647385 -0.700984
                  CHANNELS 3 Zrotation Xrotation Yrotation
                  End Site
                  {
                    OFFSET 1.69225 -0.51767 -0.607171
                  }
                }
              }
            }
          }
        }
      }
    }
  }
  JOINT rButtock
  {
    OFFSET -8.77824 4.35084 1.2192
    CHANNELS 3 Zrotation Xrotation Yrotation
    JOINT rThigh
    {
      OFFSET 0 -1.70687 -2.19456
      CHANNELS 3 Zrotation Xrotation Yrotation
      JOINT rShin
      {
        OFFSET 0 -36.8199 0.73152
        CHANNELS 3 Zrotation Xrotation Yrotation
        JOINT rFoot
        {
          OFFSET 0.73152 -45.1104 -5.12064
          CHANNELS 3 Zrotation Xrotation Yrotation
          End Site
          {
            OFFSET -1.1221 -3.69964 12.103
          }
        }
      }
    }
  }
  JOINT lButtock
  {
    OFFSET 8.77824 4.35084 1.2192
    CHANNELS 3 Zrotation Xrotation Yrotation
    JOINT lThigh
    {
      OFFSET 0 -1.70687 -2.19456
      CHANNELS 3 Zrotation Xrotation Yrotation
      JOINT lShin
      {
        OFFSET 0 -36.8199 0.73152
        CHANNELS 3 Zrotation Xrotation Yrotation
        JOINT lFoot
        {
          OFFSET -0.73152 -45.1104 -5.12064
          CHANNELS 3 Zrotation Xrotation Yrotation
          End Site
          {
            OFFSET 1.1221 -3.69964 12.103
          }
        }
      }
    }
  }
}
MOTION
Frames:	8
Frame Time:	0.00833333
-1.71962 82.4855 45.5681 0.0 0.0 0.0 -4.35903 0.00629532 -0.117465 -1.20168 0.0324821 -0.207696 1.11954e-13 -1.59028e-15 2.23633e-15 3.35418e-13 -6.36111e-15 6.71054e-15 -0.0 0.0 0.0 -0.0 0.0 0.0 5.58598e-14 1.3977e-16 1.3418e-15 1.17627e-12 3.32343e-15 2.76311e-14 2.01592e-11 -5.97328e-12 2.73528e-13 2.31544e-10 6.68483e-12 4.90442e-12 5.46024e-10 1.5449e-12 1.12083e-11 9.42954e-10 2.67167e-12 1.9333e-11 5.46026e-10 1.54257e-12 1.11987e-11 7.73091 5.47488 0.417314 5.46023e-10 1.54416e-12 1.12115e-11 2.90554 0.965183 0.102902 5.46026e-10 1.54476e-12 1.12067e-11 10.2786 0.731801 0.0259123 5.46012e-10 1.54853e-12 1.12178e-11 2.22167 -0.733487 -0.20892 5.57615e-14 1.34335e-16 8.44835e-16 1.17167e-12 2.79541e-15 2.68359e-14 2.02814e-11 6.15239e-12 2.54444e-13 2.31415e-10 -5.46832e-12 4.94894e-12 5.46027e-10 1.4911e-12 1.12146e-11 9.42986e-10 2.57625e-12 1.93553e-11 5.46022e-10 1.49009e-12 1.1221e-11 -7.73091 5.47488 -0.417314 5.46027e-10 1.49079e-12 1.12146e-11 -2.90554 0.965183 -0.102902 5.46022e-10 1.49138e-12 1.12162e-11 -10.2786 0.731801 -0.0259123 5.46033e-10 1.49486e-12 1.12051e-11 -2.22167 -0.733487 0.20892 -2.03217e-16 0.0 -3.88251e-19 -2.8915 -1.94436 0.0304706 -0.00794906 -2.07875 -0.0648844 -0.418951 4.00219 0.126627 2.03217e-16 0.0 3.88251e-19 -3.72532 -11.2507 0.483794 -0.0143131 14.7726 -0.388797 0.544772 -3.54244 0.0125151
-3.49863 82.2941 44.1576 -7.6352 -0.0273 5.786 -2.46408 -2.08968 0.981411 -1.94636 -2.71337 -0.0307867 -2.43293 3.56864 -3.20144 4.38506 -0.816082 -6.20228 -0.0 0.0 0.0 -0.0 0.0 0.0 1.30472e-14 -9.02841e-14 1.20377e-14 23.7094 3.46378 -2.25366 -3.23177 -1.31496 5.20207 0.248372 11.0944 1.45574 -5.41671e-10 4.13136e-10 3.20871e-10 -9.23392e-10 6.78358e-10 5.82763e-10 -5.41668e-10 4.13134e-10 3.20862e-10 7.73091 5.47488 0.417314 -5.41668e-10 4.13132e-10 3.20877e-10 2.90554 0.965183 0.102902 -5.4167e-10 4.13135e-10 3.20871e-10 10.2786 0.731801 0.0259123 -5.41682e-10 4.13139e-10 3.20883e-10 2.22167 -0.733487 -0.20892 1.29362e-14 -9.02867e-14 1.16087e-14 -22.8366 7.3515 2.12083 3.10227 -1.24287 -5.01172 -0.0716792 5.94479 -0.81933 1.28151e-09 4.18821e-10 -3.33297e-10 2.2077e-09 7.07904e-10 -5.91735e-10 1.28151e-09 4.18824e-10 -3.33289e-10 -7.73091 5.47488 -0.417314 1.28151e-09 4.18822e-10 -3.33297e-10 -2.90554 0.965183 -0.102902 1.28151e-09 4.18824e-10 -3.33296e-10 -10.2786 0.731801 -0.0259123 1.28152e-09 4.18827e-10 -3.33306e-10 -2.22167 -0.733487 0.20892 -2.03217e-16 0.0 -3.88251e-19 -1.12091 -1.71809 6.75028 0.00366514 -1.91498 0.0255394 -0.847246 1.11369 -6.34317 2.03217e-16 0.0 3.88251e-19 -4.00462 -9.2721 -10.7347 -0.0147207 13.9032 -0.314634 1.03877 -7.16747 12.5725
-3.49156 82.2968 44.1635 -7.6215 0.025 5.7535 -0.372822 -4.30238 2.1466 -2.71495 -5.61736 0.156707 -4.56899 7.30215 -6.62663 8.83094 -1.64193 -12.7626 -0.0 0.0 0.0 -0.0 0.0 0.0 -3.06039e-14 -1.92463e-13 2.31802e-14 49.0709 7.10686 -4.66343 -6.38938 -2.66869 10.7095 -0.149102 22.8003 3.18826 -1.75393e-09 9.013e-10 6.41191e-10 -3.00425e-09 1.48241e-09 1.16826e-09 -1.75393e-09 9.01297e-10 6.41181e-10 7.73091 5.47488 0.417314 -1.75393e-09 9.01291e-10 6.41198e-10 2.90554 0.965183 0.102902 -1.75393e-09 9.01297e-10 6.41191e-10 10.2786 0.731801 0.0259123 -1.75394e-09 9.01301e-10 6.41205e-10 2.22167 -0.733487 -0.20892 -3.07294e-14 -1.92463e-13 2.2823e-14 -47.5879 15.0907 4.48065 6.14523 -2.52439 -10.3155 0.0412815 12.2223 -1.71492 2.10011e-09 8.55615e-10 -7.47028e-10 3.61481e-09 1.44479e-09 -1.32402e-09 2.10011e-09 8.55621e-10 -7.47017e-10 -7.73091 5.47488 -0.417314 2.10011e-09 8.55618e-10 -7.47027e-10 -2.90554 0.965183 -0.102902 2.10011e-09 8.55621e-10 -7.47027e-10 -10.2786 0.731801 -0.0259123 2.10012e-09 8.55624e-10 -7.47035e-10 -2.22167 -0.733487 0.20892 -2.03217e-16 0.0 -3.88251e-19 0.694528 -1.45929 13.8531 0.015366 -1.7424 0.121064 -2.00328 -1.87435 -13.1895 2.03217e-16 0.0 3.88251e-19 -3.46475 -6.94915 -22.4682 -0.0126481 12.9838 -0.23688 3.25134 -10.2262 26.0901
-3.47396 82.302 44.1802 -7.585 0.1527 5.6624 1.56809 -6.27284 3.19636 -3.38454 -8.20495 0.326478 -6.09113 10.5712 -9.75279 12.6351 -2.33389 -18.621 -0.0 0.0 0.0 -0.0 0.0 0.0 -7.2578e-14 -2.71132e-13 3.34296e-14 71.955 10.3265 -6.86027 -8.98749 -3.81502 15.6376 -1.22388 33.1884 5.12298 -2.71706e-09 1.23632e-09 9.40198e-10 -4.65608e-09 2.02973e-09 1.70962e-09 -2.71706e-09 1.23632e-09 9.40188e-10 7.73091 5.47488 0.417314 -2.71705e-09 1.23631e-09 9.40207e-10 2.90554 0.965183 0.102902 -2.71706e-09 1.23632e-09 9.40199e-10 10.2786 0.731801 0.0259123 -2.71707e-09 1.23632e-09 9.40214e-10 2.22167 -0.733487 -0.20892 -7.27143e-14 -2.71129e-13 3.31365e-14 -70.2469 21.9288 6.80455 8.66175 -3.61466 -15.0623 0.316716 17.8194 -2.56805 2.75248e-09 1.25348e-09 -1.02232e-09 4.73712e-09 2.11856e-09 -1.81392e-09 2.75248e-09 1.25349e-09 -1.02231e-09 -7.73091 5.47488 -0.417314 2.75248e-09 1.25349e-09 -1.02232e-09 -2.90554 0.965183 -0.102902 2.75247e-09 1.25349e-09 -1.02232e-09 -10.2786 0.731801 -0.0259123 2.75248e-09 1.25349e-09 -1.02233e-09 -2.22167 -0.733487 0.20892 -2.03217e-16 0.0 -3.88251e-19 2.26142 -1.22159 20.1856 0.0253422 -1.58744 0.206338 -3.62874 -4.38188 -19.3373 2.03217e-16 0.0 3.88251e-19 -2.26939 -4.87741 -32.8613 -0.00863645 12.1643 -0.168134 6.45068 -11.8193 38.3478
-3.46465 82.3035 44.1862 -7.564 0.2153 5.6268 2.96234 -7.6461 3.94109 -3.84275 -10.0017 0.448317 -6.93343 12.807 -11.9904 15.1925 -2.79841 -22.7113 -0.0 0.0 0.0 -0.0 0.0 0.0 -1.1036e-13 -2.91023e-13 4.14466e-14 88.059 12.5493 -8.43036 -10.6823 -4.56643 19.0873 -2.52543 40.3703 6.86232 -3.05736e-09 1.18848e-09 1.18592e-09 -5.23539e-09 1.93524e-09 2.14067e-09 -3.05735e-09 1.18848e-09 1.18591e-09 7.73091 5.47488 0.417314 -3.05734e-09 1.18847e-09 1.18593e-09 2.90554 0.965183 0.102902 -3.05736e-09 1.18848e-09 1.18593e-09 10.2786 0.731801 0.0259123 -3.05736e-09 1.18848e-09 1.18594e-09 2.22167 -0.733487 -0.20892 -1.10498e-13 -2.91019e-13 4.11981e-14 -86.4141 26.6332 8.61964 10.3133 -4.33493 -18.3908 0.616422 21.7293 -3.21089 2.98924e-09 1.55403e-09 -9.51523e-10 5.14742e-09 2.6345e-09 -1.69785e-09 2.98924e-09 1.55404e-09 -9.51511e-10 -7.73091 5.47488 -0.417314 2.98925e-09 1.55404e-09 -9.51523e-10 -2.90554 0.965183 -0.102902 2.98924e-09 1.55404e-09 -9.51523e-10 -10.2786 0.731801 -0.0259123 2.98925e-09 1.55404e-09 -9.5153e-10 -2.22167 -0.733487 0.20892 -2.03217e-16 0.0 -3.88251e-19 3.32121 -1.05845 24.5949 0.0320918 -1.47653 0.266019 -5.0801 -5.99523 -23.6519 2.03217e-16 0.0 3.88251e-19 -1.06581 -3.52791 -40.0807 -0.00462716 11.5945 -0.120674 9.16904 -12.1078 46.9254
-3.46456 82.3031 44.1865 -7.5537 0.1831 5.6281 3.51659 -8.1918 4.2497 -4.02419 -10.689 0.500641 -7.21236 13.6905 -12.8888 16.1573 -3.02494 -24.3223 -0.0 0.0 0.0 -0.0 0.0 0.0 -1.5072e-13 -2.14687e-13 4.76439e-14 94.4045 13.421 -9.05494 -11.3244 -4.8506 20.4491 -3.19513 43.1423 7.66818 -2.40201e-09 4.76433e-10 1.39603e-09 -4.09866e-09 7.24109e-10 2.48041e-09 -2.402e-09 4.76432e-10 1.39602e-09 7.73091 5.47488 0.417314 -2.402e-09 4.76422e-10 1.39604e-09 2.90554 0.965183 0.102902 -2.402e-09 4.76431e-10 1.39603e-09 10.2786 0.731801 0.0259123 -2.40201e-09 4.76435e-10 1.39604e-09 2.22167 -0.733487 -0.20892 -1.50849e-13 -2.14683e-13 4.74094e-14 -92.84 28.4397 9.39662 10.9493 -4.61327 -19.7215 0.762823 23.2999 -3.48284 2.58083e-09 1.75715e-09 -2.74952e-10 4.45354e-09 2.9989e-09 -5.22979e-10 2.58083e-09 1.75716e-09 -2.74941e-10 -7.73091 5.47488 -0.417314 2.58084e-09 1.75715e-09 -2.74954e-10 -2.90554 0.965183 -0.102902 2.58083e-09 1.75716e-09 -2.74953e-10 -10.2786 0.731801 -0.0259123 2.58084e-09 1.75716e-09 -2.74959e-10 -2.22167 -0.733487 0.20892 -2.03217e-16 0.0 -3.88251e-19 3.72136 -1.00239 26.3114 0.0348172 -1.42687 0.28993 -5.71593 -6.59778 -25.3232 2.03217e-16 0.0 3.88251e-19 -0.52371 -3.03646 -42.8865 -0.00274578 11.3743 -0.10259 10.3035 -12.0162 50.2666
-3.46502 82.3032 44.1864 -7.5452 0.1515 5.6297 3.45246 -8.14805 4.24322 -4.01174 -10.584 0.502419 -7.18086 13.6347 -12.8025 16.0202 -3.10363 -24.1598 -0.0 0.0 0.0 -0.0 0.0 0.0 -1.92521e-13 -7.02814e-14 5.24791e-14 93.7157 13.3405 -8.98482 -11.2623 -4.82563 20.3146 -3.10755 42.7932 7.56298 -1.04137e-09 -7.03945e-10 1.57884e-09 -1.74641e-09 -1.27423e-09 2.75194e-09 -1.04136e-09 -7.03944e-10 1.57883e-09 7.73091 5.47488 0.417314 -1.04136e-09 -7.03951e-10 1.57885e-09 2.90554 0.965183 0.102902 -1.04137e-09 -7.03945e-10 1.57884e-09 10.2786 0.731801 0.0259123 -1.04137e-09 -7.03941e-10 1.57885e-09 2.22167 -0.733487 -0.20892 -1.92631e-13 -7.0277e-14 5.22369e-14 -92.135 28.2054 9.32941 10.9037 -4.59767 -19.6204 0.751085 23.2023 -3.4651 1.71459e-09 1.88882e-09 8.28541e-10 2.97608e-09 3.25174e-09 1.39817e-09 1.71459e-09 1.88883e-09 8.28549e-10 -7.73091 5.47488 -0.417314 1.7146e-09 1.88882e-09 8.28536e-10 -2.90554 0.965183 -0.102902 1.71459e-09 1.88882e-09 8.28539e-10 -10.2786 0.731801 -0.0259123 1.7146e-09 1.88883e-09 8.28532e-10 -2.22167 -0.733487 0.20892 -2.03217e-16 0.0 -3.88251e-19 3.66147 -1.02173 26.1048 0.034785 -1.42097 0.288292 -5.64229 -6.54944 -25.0858 2.03217e-16 0.0 3.88251e-19 -0.596951 -3.09348 -42.5395 -0.00286912 11.4038 -0.105382 10.1775 -12.0352 49.8912
-3.47059 82.3037 44.1859 -7.5644 0.1328 5.6329 3.13745 -7.8646 4.10661 -3.91735 -10.1659 0.483289 -7.02343 13.1981 -12.3183 15.4417 -3.11431 -23.2819 -0.0 0.0 0.0 -0.0 0.0 0.0 -2.21379e-13 7.90493e-14 5.46805e-14 90.2123 12.8779 -8.63956 -10.918 -4.6765 19.5801 -2.72034 41.1961 7.09627 4.03498e-10 -1.86652e-09 1.68837e-09 7.48881e-10 -3.23851e-09 2.89513e-09 4.03506e-10 -1.86652e-09 1.68836e-09 7.73091 5.47488 0.417314 4.03498e-10 -1.86652e-09 1.68838e-09 2.90554 0.965183 0.102902 4.03499e-10 -1.86652e-09 1.68838e-09 10.2786 0.731801 0.0259123 4.03497e-10 -1.86652e-09 1.68837e-09 2.22167 -0.733487 -0.20892 -2.21466e-13 7.90523e-14 5.44274e-14 -88.5812 27.1586 8.92628 10.5827 -4.46271 -18.9401 0.673995 22.4181 -3.32784 7.66575e-10 1.92982e-09 1.90881e-09 1.35698e-09 3.34892e-09 3.28108e-09 7.66568e-10 1.92982e-09 1.90882e-09 -7.73091 5.47488 -0.417314 7.6658e-10 1.92982e-09 1.9088e-09 -2.90554 0.965183 -0.102902 7.66573e-10 1.92982e-09 1.90881e-09 -10.2786 0.731801 -0.0259123 7.6658e-10 1.92982e-09 1.9088e-09 -2.22167 -0.733487 0.20892 -2.03217e-16 0.0 -3.88251e-19 3.41712 -1.06851 25.1308 0.0336387 -1.43327 0.276356 -5.28499 -6.23744 -24.0893 2.03217e-16 0.0 3.88251e-19 -0.915838 -3.36844 -40.9318 -0.00378666 11.5333 -0.116417 9.54854 -12.0993 48.0277
